<?xml version="1.0" encoding="UTF-8"?>
<!-- Generator: Adobe Illustrator 16.0.3, SVG Export Plug-In . SVG Version: 6.00 Build 0)  -->
<!DOCTYPE svg PUBLIC "-//W3C//DTD SVG 1.1//EN" "http://www.w3.org/Graphics/SVG/1.1/DTD/svg11.dtd">
<svg version="1.1" id="Layer_1" xmlns="http://www.w3.org/2000/svg" xmlns:xlink="http://www.w3.org/1999/xlink" x="0px" y="0px" height="178.953px" width="49.578px" viewBox="0 0 49.578 178.953" enable-background="new 0 0 178.953 49.578" xml:space="preserve">
<g transform="rotate(-90 100 100) translate(30 0)">
	<polygon fill="#F47920" points="147.524,47.84 140.893,40.402 134.323,47.84 120.501,47.84 134.012,32.656 120.501,17.47    134.756,17.47 141.45,24.848 147.895,17.47 161.656,17.47 148.207,32.593 161.84,47.84  "/>
	<polygon fill="#F47920" points="93.945,47.84 93.945,0 120.501,0 120.501,10.663 105.193,10.663 105.193,17.47 120.501,17.47    120.501,27.73 105.193,27.73 105.193,37.146 120.501,37.146 120.501,47.84  "/>
	<path d="M82.742,0v19.578h-0.121c-2.482-2.851-5.579-3.842-9.173-3.842c-7.366,0-12.912,5.008-14.861,11.625   C56.367,20.07,50.639,15.6,42.147,15.6c-6.896,0-12.342,3.096-15.185,8.139V17.47H12.707v-6.807h15.557V0H0v47.84h12.707V27.73   h12.667c-0.378,1.477-0.58,3.059-0.58,4.727c0,9.98,7.624,16.982,17.354,16.982c8.182,0,13.573-3.841,16.425-10.843h-10.89   c-1.474,2.104-2.592,2.729-5.535,2.729c-3.415,0-6.359-2.979-6.359-6.513h22.174c0.963,7.929,7.137,14.765,15.609,14.765   c3.654,0,7.004-1.799,9.05-4.836h0.121v3.098h11.204V0H82.742z M36.141,27.873c0.708-3.037,3.063-5.024,6.007-5.024   c3.238,0,5.475,1.926,6.063,5.024H36.141z M75.945,40.557c-4.129,0-6.696-3.848-6.696-7.865c0-4.293,2.234-8.423,6.696-8.423   c4.628,0,6.471,4.13,6.471,8.423C82.416,36.765,80.463,40.557,75.945,40.557" fill="#FFFFFF"/>
</g>
</svg>
